solid OpenSCAD_Model
  facet normal -1 0 0
    outer loop
      vertex -100 0 -1.12571
      vertex -100 76 -1.625
      vertex -100 0 -1.625
    endloop
  endfacet
  facet normal -1 0 0
    outer loop
      vertex -100 76 -1.625
      vertex -100 0 -1.12571
      vertex -100 76 1.12429
    endloop
  endfacet
  facet normal 1 -0 0
    outer loop
      vertex 100 0 -1.12571
      vertex 100 76 -1.625
      vertex 100 76 1.12429
    endloop
  endfacet
  facet normal 1 0 0
    outer loop
      vertex 100 76 -1.625
      vertex 100 0 -1.12571
      vertex 100 0 -1.625
    endloop
  endfacet
  facet normal 0 1 -0
    outer loop
      vertex 100 76 -1.625
      vertex -100 76 1.12429
      vertex 100 76 1.12429
    endloop
  endfacet
  facet normal 0 1 0
    outer loop
      vertex -100 76 1.12429
      vertex 100 76 -1.625
      vertex -100 76 -1.625
    endloop
  endfacet
  facet normal 0 0 -1
    outer loop
      vertex -100 0 -1.625
      vertex 100 76 -1.625
      vertex 100 0 -1.625
    endloop
  endfacet
  facet normal -0 0 -1
    outer loop
      vertex 100 76 -1.625
      vertex -100 0 -1.625
      vertex -100 76 -1.625
    endloop
  endfacet
  facet normal 0 -1 0
    outer loop
      vertex -100 0 -1.625
      vertex 100 0 -1.12571
      vertex -100 0 -1.12571
    endloop
  endfacet
  facet normal 0 -1 -0
    outer loop
      vertex 100 0 -1.12571
      vertex -100 0 -1.625
      vertex 100 0 -1.625
    endloop
  endfacet
  facet normal 0 -0.0295923 0.999562
    outer loop
      vertex -100 76 1.12429
      vertex 100 0 -1.12571
      vertex 100 76 1.12429
    endloop
  endfacet
  facet normal 0 -0.0295923 0.999562
    outer loop
      vertex 100 0 -1.12571
      vertex -100 76 1.12429
      vertex -100 0 -1.12571
    endloop
  endfacet
  facet normal -1 0 0
    outer loop
      vertex -100 77 -1.12571
      vertex -100 153 -1.625
      vertex -100 77 -1.625
    endloop
  endfacet
  facet normal -1 0 0
    outer loop
      vertex -100 153 -1.625
      vertex -100 77 -1.12571
      vertex -100 153 1.12429
    endloop
  endfacet
  facet normal 1 -0 0
    outer loop
      vertex 100 77 -1.12571
      vertex 100 153 -1.625
      vertex 100 153 1.12429
    endloop
  endfacet
  facet normal 1 0 0
    outer loop
      vertex 100 153 -1.625
      vertex 100 77 -1.12571
      vertex 100 77 -1.625
    endloop
  endfacet
  facet normal 0 1 -0
    outer loop
      vertex 100 153 -1.625
      vertex -100 153 1.12429
      vertex 100 153 1.12429
    endloop
  endfacet
  facet normal 0 1 0
    outer loop
      vertex -100 153 1.12429
      vertex 100 153 -1.625
      vertex -100 153 -1.625
    endloop
  endfacet
  facet normal 0 0 -1
    outer loop
      vertex -100 77 -1.625
      vertex 100 153 -1.625
      vertex 100 77 -1.625
    endloop
  endfacet
  facet normal -0 0 -1
    outer loop
      vertex 100 153 -1.625
      vertex -100 77 -1.625
      vertex -100 153 -1.625
    endloop
  endfacet
  facet normal 0 -1 0
    outer loop
      vertex -100 77 -1.625
      vertex 100 77 -1.12571
      vertex -100 77 -1.12571
    endloop
  endfacet
  facet normal 0 -1 -0
    outer loop
      vertex 100 77 -1.12571
      vertex -100 77 -1.625
      vertex 100 77 -1.625
    endloop
  endfacet
  facet normal 0 -0.0295923 0.999562
    outer loop
      vertex -100 153 1.12429
      vertex 100 77 -1.12571
      vertex 100 153 1.12429
    endloop
  endfacet
  facet normal 0 -0.0295923 0.999562
    outer loop
      vertex 100 77 -1.12571
      vertex -100 153 1.12429
      vertex -100 77 -1.12571
    endloop
  endfacet
  facet normal -1 0 0
    outer loop
      vertex -100 -154 -1.80258
      vertex -100 -78 -2.3
      vertex -100 -154 -2.3
    endloop
  endfacet
  facet normal -1 0 0
    outer loop
      vertex -100 -78 -2.3
      vertex -100 -154 -1.80258
      vertex -100 -78 1.79742
    endloop
  endfacet
  facet normal 1 -0 0
    outer loop
      vertex 100 -154 -1.80258
      vertex 100 -78 -2.3
      vertex 100 -78 1.79742
    endloop
  endfacet
  facet normal 1 0 0
    outer loop
      vertex 100 -78 -2.3
      vertex 100 -154 -1.80258
      vertex 100 -154 -2.3
    endloop
  endfacet
  facet normal 0 1 -0
    outer loop
      vertex 100 -78 -2.3
      vertex -100 -78 1.79742
      vertex 100 -78 1.79742
    endloop
  endfacet
  facet normal 0 1 0
    outer loop
      vertex -100 -78 1.79742
      vertex 100 -78 -2.3
      vertex -100 -78 -2.3
    endloop
  endfacet
  facet normal 0 0 -1
    outer loop
      vertex -100 -154 -2.3
      vertex 100 -78 -2.3
      vertex 100 -154 -2.3
    endloop
  endfacet
  facet normal -0 0 -1
    outer loop
      vertex 100 -78 -2.3
      vertex -100 -154 -2.3
      vertex -100 -78 -2.3
    endloop
  endfacet
  facet normal 0 -1 0
    outer loop
      vertex -100 -154 -2.3
      vertex 100 -154 -1.80258
      vertex -100 -154 -1.80258
    endloop
  endfacet
  facet normal 0 -1 -0
    outer loop
      vertex 100 -154 -1.80258
      vertex -100 -154 -2.3
      vertex 100 -154 -2.3
    endloop
  endfacet
  facet normal 0 -0.0473154 0.99888
    outer loop
      vertex -100 -78 1.79742
      vertex 100 -154 -1.80258
      vertex 100 -78 1.79742
    endloop
  endfacet
  facet normal 0 -0.0473154 0.99888
    outer loop
      vertex 100 -154 -1.80258
      vertex -100 -78 1.79742
      vertex -100 -154 -1.80258
    endloop
  endfacet
  facet normal -1 0 0
    outer loop
      vertex -100 -77 -1.80258
      vertex -100 -1 -2.3
      vertex -100 -77 -2.3
    endloop
  endfacet
  facet normal -1 0 0
    outer loop
      vertex -100 -1 -2.3
      vertex -100 -77 -1.80258
      vertex -100 -1 1.79742
    endloop
  endfacet
  facet normal 1 -0 0
    outer loop
      vertex 100 -77 -1.80258
      vertex 100 -1 -2.3
      vertex 100 -1 1.79742
    endloop
  endfacet
  facet normal 1 0 0
    outer loop
      vertex 100 -1 -2.3
      vertex 100 -77 -1.80258
      vertex 100 -77 -2.3
    endloop
  endfacet
  facet normal 0 1 -0
    outer loop
      vertex 100 -1 -2.3
      vertex -100 -1 1.79742
      vertex 100 -1 1.79742
    endloop
  endfacet
  facet normal 0 1 0
    outer loop
      vertex -100 -1 1.79742
      vertex 100 -1 -2.3
      vertex -100 -1 -2.3
    endloop
  endfacet
  facet normal 0 0 -1
    outer loop
      vertex -100 -77 -2.3
      vertex 100 -1 -2.3
      vertex 100 -77 -2.3
    endloop
  endfacet
  facet normal -0 0 -1
    outer loop
      vertex 100 -1 -2.3
      vertex -100 -77 -2.3
      vertex -100 -1 -2.3
    endloop
  endfacet
  facet normal 0 -1 0
    outer loop
      vertex -100 -77 -2.3
      vertex 100 -77 -1.80258
      vertex -100 -77 -1.80258
    endloop
  endfacet
  facet normal 0 -1 -0
    outer loop
      vertex 100 -77 -1.80258
      vertex -100 -77 -2.3
      vertex 100 -77 -2.3
    endloop
  endfacet
  facet normal 0 -0.0473154 0.99888
    outer loop
      vertex -100 -1 1.79742
      vertex 100 -77 -1.80258
      vertex 100 -1 1.79742
    endloop
  endfacet
  facet normal 0 -0.0473154 0.99888
    outer loop
      vertex 100 -77 -1.80258
      vertex -100 -1 1.79742
      vertex -100 -77 -1.80258
    endloop
  endfacet
endsolid OpenSCAD_Model
