solid OpenSCAD_Model
  facet normal -1 0 0
    outer loop
      vertex -100 -38 -1.12571
      vertex -100 38 -1.625
      vertex -100 -38 -1.625
    endloop
  endfacet
  facet normal -1 0 0
    outer loop
      vertex -100 38 -1.625
      vertex -100 -38 -1.12571
      vertex -100 38 1.12429
    endloop
  endfacet
  facet normal 1 -0 0
    outer loop
      vertex 100 -38 -1.12571
      vertex 100 38 -1.625
      vertex 100 38 1.12429
    endloop
  endfacet
  facet normal 1 0 0
    outer loop
      vertex 100 38 -1.625
      vertex 100 -38 -1.12571
      vertex 100 -38 -1.625
    endloop
  endfacet
  facet normal 0 1 -0
    outer loop
      vertex 100 38 -1.625
      vertex -100 38 1.12429
      vertex 100 38 1.12429
    endloop
  endfacet
  facet normal 0 1 0
    outer loop
      vertex -100 38 1.12429
      vertex 100 38 -1.625
      vertex -100 38 -1.625
    endloop
  endfacet
  facet normal 0 0 -1
    outer loop
      vertex -100 -38 -1.625
      vertex 100 38 -1.625
      vertex 100 -38 -1.625
    endloop
  endfacet
  facet normal -0 0 -1
    outer loop
      vertex 100 38 -1.625
      vertex -100 -38 -1.625
      vertex -100 38 -1.625
    endloop
  endfacet
  facet normal 0 -1 0
    outer loop
      vertex -100 -38 -1.625
      vertex 100 -38 -1.12571
      vertex -100 -38 -1.12571
    endloop
  endfacet
  facet normal 0 -1 -0
    outer loop
      vertex 100 -38 -1.12571
      vertex -100 -38 -1.625
      vertex 100 -38 -1.625
    endloop
  endfacet
  facet normal 0 -0.0295923 0.999562
    outer loop
      vertex -100 38 1.12429
      vertex 100 -38 -1.12571
      vertex 100 38 1.12429
    endloop
  endfacet
  facet normal 0 -0.0295923 0.999562
    outer loop
      vertex 100 -38 -1.12571
      vertex -100 38 1.12429
      vertex -100 -38 -1.12571
    endloop
  endfacet
  facet normal -1 0 0
    outer loop
      vertex -100 39 -1.12571
      vertex -100 115 -1.625
      vertex -100 39 -1.625
    endloop
  endfacet
  facet normal -1 0 0
    outer loop
      vertex -100 115 -1.625
      vertex -100 39 -1.12571
      vertex -100 115 1.12429
    endloop
  endfacet
  facet normal 1 -0 0
    outer loop
      vertex 100 39 -1.12571
      vertex 100 115 -1.625
      vertex 100 115 1.12429
    endloop
  endfacet
  facet normal 1 0 0
    outer loop
      vertex 100 115 -1.625
      vertex 100 39 -1.12571
      vertex 100 39 -1.625
    endloop
  endfacet
  facet normal 0 1 -0
    outer loop
      vertex 100 115 -1.625
      vertex -100 115 1.12429
      vertex 100 115 1.12429
    endloop
  endfacet
  facet normal 0 1 0
    outer loop
      vertex -100 115 1.12429
      vertex 100 115 -1.625
      vertex -100 115 -1.625
    endloop
  endfacet
  facet normal 0 0 -1
    outer loop
      vertex -100 39 -1.625
      vertex 100 115 -1.625
      vertex 100 39 -1.625
    endloop
  endfacet
  facet normal -0 0 -1
    outer loop
      vertex 100 115 -1.625
      vertex -100 39 -1.625
      vertex -100 115 -1.625
    endloop
  endfacet
  facet normal 0 -1 0
    outer loop
      vertex -100 39 -1.625
      vertex 100 39 -1.12571
      vertex -100 39 -1.12571
    endloop
  endfacet
  facet normal 0 -1 -0
    outer loop
      vertex 100 39 -1.12571
      vertex -100 39 -1.625
      vertex 100 39 -1.625
    endloop
  endfacet
  facet normal 0 -0.0295923 0.999562
    outer loop
      vertex -100 115 1.12429
      vertex 100 39 -1.12571
      vertex 100 115 1.12429
    endloop
  endfacet
  facet normal 0 -0.0295923 0.999562
    outer loop
      vertex 100 39 -1.12571
      vertex -100 115 1.12429
      vertex -100 39 -1.12571
    endloop
  endfacet
endsolid OpenSCAD_Model
